:SAMPLES-PER-SECOND 30
:FULLY-SPECIFIED
:DEGREES
214
root  -1.34152 6.04261 15.5253 -46.9856 -5.01238 2.10711
RightUpLeg  -87.2855 -8.14275 4.65684
RightLeg  89.6628 16.1894 -7.35742
RightFoot  30.5796 2.79242 -7.25346
RightToes  5.82077e-011 -3.18055e-015 -2.98177e-016
Spine  31.9724 2.43462 6.60456
Spine1  20.9555 1.12711 2.7869
HEad  -11.9841 0.704934 6.30888
LeftShoulder1  -3.88251e-019 9.70628e-020 -3.87848e-018
LeftArm  -17.4641 64.3997 -54.864
LeftForeArm  -0.928699 -3.54588 -2.07292
LeftHand  -8.68323 -9.63254 62.369
RightShoulder  5.05837 9.41017 24.5276
RightArm  -5.68072 -63.1855 17.0064
RightForeArm  -7.44724 2.02212 -8.8597
RightHand  -7.36935 6.0962 -65.7666
LeftUpLeg  -86.6773 6.12673 3.06528
LeftLeg  91.0781 -13.7969 4.9753
LeftFoot  33.5274 0.0408773 0.131871
LeftToes  5.91571e-011 -3.44359e-011 -3.93244e-011
215
root  -1.33968 6.03106 15.4955 -46.9439 -4.77105 2.09304
RightUpLeg  -87.406 -8.38332 4.73239
RightLeg  89.2734 16.1791 -7.99341
RightFoot  30.8831 2.95576 -7.60378
RightToes  5.82077e-011 -3.18055e-015 -2.98177e-016
Spine  31.9392 2.42995 6.00575
Spine1  21.1296 0.915993 2.95067
HEad  -11.7112 1.54609 6.4125
LeftShoulder1  -3.88251e-019 9.70628e-020 -3.87848e-018
LeftArm  -16.953 64.804 -54.5838
LeftForeArm  -1.69534 -4.33772 -2.22579
LeftHand  -8.61925 -9.49468 62.4747
RightShoulder  5.13921 9.42084 24.9721
RightArm  -5.52089 -62.3581 16.8817
RightForeArm  -6.87413 1.80233 -8.71242
RightHand  -7.42184 6.18128 -65.7548
LeftUpLeg  -86.6951 6.24153 2.6819
LeftLeg  90.8678 -13.7707 4.81129
LeftFoot  33.8093 0.143132 -0.102503
LeftToes  5.91571e-011 -3.44359e-011 -3.93244e-011
216
root  -1.3266 6.01517 15.4743 -46.989 -4.66478 2.17584
RightUpLeg  -87.4763 -8.60269 4.77683
RightLeg  89.3102 16.1747 -7.84106
RightFoot  30.7508 3.11718 -8.02663
RightToes  5.82077e-011 -3.18055e-015 -2.98177e-016
Spine  31.9705 2.42973 5.6843
Spine1  21.1905 0.875577 2.90835
HEad  -11.28 1.84472 6.11302
LeftShoulder1  -3.88251e-019 9.70628e-020 -3.87848e-018
LeftArm  -16.328 65.159 -54.1184
LeftForeArm  -2.00871 -5.0678 -2.37021
LeftHand  -8.78018 -9.71437 62.6505
RightShoulder  5.28171 9.47164 25.6897
RightArm  -5.03666 -61.4403 16.2015
RightForeArm  -6.6429 1.53256 -8.52551
RightHand  -7.57443 6.42288 -65.7466
LeftUpLeg  -86.6092 6.54955 2.28907
LeftLeg  90.6831 -13.7708 5.01614
LeftFoot  34.0975 0.132534 -0.0754897
LeftToes  5.91571e-011 -3.44359e-011 -3.93244e-011
217
root  -1.29731 6.04788 15.3741 -47.1395 -5.9168 1.47486
RightUpLeg  -86.666 -8.5682 6.21028
RightLeg  89.2331 16.1112 -6.73722
RightFoot  29.9866 2.98553 -7.8406
RightToes  5.82077e-011 -3.18055e-015 -2.98177e-016
Spine  32.771 2.12702 7.08129
Spine1  20.6683 1.16642 2.57283
HEad  -10.8258 1.78949 5.48263
LeftShoulder1  -3.88251e-019 9.70628e-020 -3.87848e-018
LeftArm  -15.6273 65.6212 -53.3838
LeftForeArm  -1.98727 -6.19814 -2.52293
LeftHand  -8.88091 -10.0238 62.1678
RightShoulder  5.39167 9.47279 26.3145
RightArm  -3.82182 -60.7333 15.1829
RightForeArm  -7.25374 2.05822 -8.11314
RightHand  -7.49825 6.31925 -65.6747
LeftUpLeg  -86.4226 7.39937 3.48675
LeftLeg  90.6489 -13.755 4.80508
LeftFoot  33.9364 0.0118752 0.200635
LeftToes  5.91571e-011 -3.44359e-011 -3.93244e-011
218
root  -1.25676 6.10941 15.2218 -47.5461 -7.82086 0.141953
RightUpLeg  -85.0613 -8.61784 8.36415
RightLeg  88.8828 16.0217 -5.44411
RightFoot  28.9088 2.55202 -6.92886
RightToes  5.82077e-011 -3.18055e-015 -2.98177e-016
Spine  34.3743 1.46983 9.41555
Spine1  19.7904 1.50099 2.11386
HEad  -10.6382 1.9137 4.81544
LeftShoulder1  -3.88251e-019 9.70628e-020 -3.87848e-018
LeftArm  -14.5901 66.3324 -52.2348
LeftForeArm  -2.03921 -8.02253 -2.70226
LeftHand  -8.69624 -10.0807 60.914
RightShoulder  5.34923 9.35323 26.3094
RightArm  -1.95221 -60.6313 14.3451
RightForeArm  -7.62599 3.42466 -7.40889
RightHand  -7.18617 5.91782 -65.2597
LeftUpLeg  -85.9984 8.30075 5.71306
LeftLeg  90.7753 -13.7265 4.21509
LeftFoot  33.2756 0.013197 0.194803
LeftToes  5.91571e-011 -3.44359e-011 -3.93244e-011
